<svg width="100" height="100" viewBox="0 0 100 100" fill="none" xmlns="http://www.w3.org/2000/svg">
<path d="M53 45C51 44.5 49 43.5 47.5 42C46 41.5 45.5 40 45.5 39C45.5 38 46 36.5 47 36C48.5 35 50 34 51.5 34.5C54.5 34.5 57 36 58.5 38L63 32C61.5 30.5 60 29.5 58.5 28.5C57 27.5 55 27 53 27V20H47V27C44.5 27.5 42 29 40 31C38 33.5 36.5 36.5 37 39.5C37 42.5 38 45.5 40 47.5C42.5 50 46 51.5 49 53C50.5 53.5 52.5 54.5 54 55.5C55 56.5 55.5 58 55.5 59.5C55.5 61 55 62.5 54 64C52.5 65.5 50.5 66 49 66C47 66 44.5 65.5 43 64C41.5 63 40 61.5 39 60L34 65.5C35.5 67.5 37 69 39 70.5C41.5 72 44.5 73.5 47.5 73.5V80H53V72.5C56 72 58.5 70.5 60.5 68.5C63 66 64.5 62 64.5 58.5C64.5 55.5 63.5 52 61 50C58.5 47.5 56 46 53 45V45ZM50 10C28 10 10 28 10 50C10 72 28 90 50 90C72 90 90 72 90 50C90 28 72 10 50 10ZM50 84.5C31 84.5 15.5 69 15.5 50C15.5 31 31 15.5 50 15.5C69 15.5 84.5 31 84.5 50C84.5 69 69 84.5 50 84.5V84.5Z" fill="#70F576"/>
</svg>
