<svg width="62" height="64" viewBox="0 0 62 64" fill="none" xmlns="http://www.w3.org/2000/svg">
<path d="M36.0586 32L61.6934 1.44336C62.123 0.935547 61.7617 0.164062 61.0977 0.164062H53.3047C52.8457 0.164062 52.4063 0.36914 52.1035 0.720703L30.9609 25.9258L9.81836 0.720703C9.5254 0.36914 9.08594 0.164062 8.61719 0.164062H0.824223C0.160161 0.164062 -0.201168 0.935547 0.22852 1.44336L25.8633 32L0.22852 62.5566C0.132266 62.6698 0.0705151 62.8083 0.0505968 62.9555C0.0306785 63.1027 0.0534291 63.2526 0.11615 63.3873C0.178871 63.522 0.278927 63.6359 0.404438 63.7154C0.529949 63.7949 0.675643 63.8368 0.824223 63.8359H8.61719C9.07618 63.8359 9.51563 63.6309 9.81836 63.2793L30.9609 38.0742L52.1035 63.2793C52.3965 63.6309 52.8359 63.8359 53.3047 63.8359H61.0977C61.7617 63.8359 62.123 63.0645 61.6934 62.5566L36.0586 32Z" fill="#545454"/>
</svg>
