<svg width="100" height="100" viewBox="0 0 100 100" fill="none" xmlns="http://www.w3.org/2000/svg">
<path fill-rule="evenodd" clip-rule="evenodd" d="M6.25 50C6.25 61.6032 10.8594 72.7312 19.0641 80.9359C27.2688 89.1406 38.3968 93.75 50 93.75C61.6032 93.75 72.7312 89.1406 80.9359 80.9359C89.1406 72.7312 93.75 61.6032 93.75 50C93.75 38.3968 89.1406 27.2688 80.9359 19.0641C72.7312 10.8594 61.6032 6.25 50 6.25C38.3968 6.25 27.2688 10.8594 19.0641 19.0641C10.8594 27.2688 6.25 38.3968 6.25 50V50ZM100 50C100 63.2608 94.7322 75.9785 85.3553 85.3553C75.9785 94.7322 63.2608 100 50 100C36.7392 100 24.0215 94.7322 14.6447 85.3553C5.26784 75.9785 0 63.2608 0 50C0 36.7392 5.26784 24.0215 14.6447 14.6447C24.0215 5.26784 36.7392 0 50 0C63.2608 0 75.9785 5.26784 85.3553 14.6447C94.7322 24.0215 100 36.7392 100 50V50ZM53.125 28.125C53.125 27.2962 52.7958 26.5013 52.2097 25.9153C51.6237 25.3292 50.8288 25 50 25C49.1712 25 48.3763 25.3292 47.7903 25.9153C47.2042 26.5013 46.875 27.2962 46.875 28.125V64.3313L33.4625 50.9125C32.8757 50.3257 32.0798 49.9961 31.25 49.9961C30.4202 49.9961 29.6243 50.3257 29.0375 50.9125C28.4507 51.4993 28.1211 52.2952 28.1211 53.125C28.1211 53.9548 28.4507 54.7507 29.0375 55.3375L47.7875 74.0875C48.0778 74.3785 48.4226 74.6094 48.8023 74.767C49.1819 74.9245 49.589 75.0056 50 75.0056C50.411 75.0056 50.8181 74.9245 51.1977 74.767C51.5774 74.6094 51.9222 74.3785 52.2125 74.0875L70.9625 55.3375C71.5493 54.7507 71.8789 53.9548 71.8789 53.125C71.8789 52.2952 71.5493 51.4993 70.9625 50.9125C70.3757 50.3257 69.5798 49.9961 68.75 49.9961C67.9202 49.9961 67.1243 50.3257 66.5375 50.9125L53.125 64.3313V28.125Z" fill="#E52E4D"/>
</svg>
