<svg width="100" height="100" viewBox="0 0 100 100" fill="none" xmlns="http://www.w3.org/2000/svg">
<path fill-rule="evenodd" clip-rule="evenodd" d="M93.75 50C93.75 38.3968 89.1406 27.2688 80.9359 19.0641C72.7312 10.8594 61.6032 6.25 50 6.25C38.3968 6.25 27.2688 10.8594 19.0641 19.0641C10.8594 27.2688 6.25 38.3968 6.25 50C6.25 61.6032 10.8594 72.7312 19.0641 80.9359C27.2688 89.1406 38.3968 93.75 50 93.75C61.6032 93.75 72.7312 89.1406 80.9359 80.9359C89.1406 72.7312 93.75 61.6032 93.75 50V50ZM0 50C0 36.7392 5.26784 24.0215 14.6447 14.6447C24.0215 5.26784 36.7392 0 50 0C63.2608 0 75.9785 5.26784 85.3553 14.6447C94.7322 24.0215 100 36.7392 100 50C100 63.2608 94.7322 75.9785 85.3553 85.3553C75.9785 94.7322 63.2608 100 50 100C36.7392 100 24.0215 94.7322 14.6447 85.3553C5.26784 75.9785 0 63.2608 0 50V50ZM46.875 71.875C46.875 72.7038 47.2042 73.4987 47.7903 74.0847C48.3763 74.6708 49.1712 75 50 75C50.8288 75 51.6237 74.6708 52.2097 74.0847C52.7958 73.4987 53.125 72.7038 53.125 71.875L53.125 35.6687L66.5375 49.0875C67.1243 49.6743 67.9202 50.0039 68.75 50.0039C69.5798 50.0039 70.3757 49.6743 70.9625 49.0875C71.5493 48.5007 71.8789 47.7048 71.8789 46.875C71.8789 46.0452 71.5493 45.2493 70.9625 44.6625L52.2125 25.9125C51.9222 25.6215 51.5774 25.3906 51.1977 25.233C50.8181 25.0755 50.411 24.9944 50 24.9944C49.589 24.9944 49.1819 25.0755 48.8023 25.233C48.4226 25.3906 48.0778 25.6215 47.7875 25.9125L29.0375 44.6625C28.4507 45.2493 28.1211 46.0452 28.1211 46.875C28.1211 47.7048 28.4507 48.5007 29.0375 49.0875C29.6243 49.6743 30.4202 50.0039 31.25 50.0039C32.0798 50.0039 32.8757 49.6743 33.4625 49.0875L46.875 35.6687L46.875 71.875Z" fill="#70F576"/>
</svg>
