<svg width="381" height="104" viewBox="0 0 381 104" fill="none" xmlns="http://www.w3.org/2000/svg">
<path d="M53 45C51 44.5 49 43.5 47.5 42C46 41.5 45.5 40 45.5 39C45.5 38 46 36.5 47 36C48.5 35 50 34 51.5 34.5C54.5 34.5 57 36 58.5 38L63 32C61.5 30.5 60 29.5 58.5 28.5C57 27.5 55 27 53 27V20H47V27C44.5 27.5 42 29 40 31C38 33.5 36.5 36.5 37 39.5C37 42.5 38 45.5 40 47.5C42.5 50 46 51.5 49 53C50.5 53.5 52.5 54.5 54 55.5C55 56.5 55.5 58 55.5 59.5C55.5 61 55 62.5 54 64C52.5 65.5 50.5 66 49 66C47 66 44.5 65.5 43 64C41.5 63 40 61.5 39 60L34 65.5C35.5 67.5 37 69 39 70.5C41.5 72 44.5 73.5 47.5 73.5V80H53V72.5C56 72 58.5 70.5 60.5 68.5C63 66 64.5 62 64.5 58.5C64.5 55.5 63.5 52 61 50C58.5 47.5 56 46 53 45V45ZM50 10C28 10 10 28 10 50C10 72 28 90 50 90C72 90 90 72 90 50C90 28 72 10 50 10ZM50 84.5C31 84.5 15.5 69 15.5 50C15.5 31 31 15.5 50 15.5C69 15.5 84.5 31 84.5 50C84.5 69 69 84.5 50 84.5V84.5Z" fill="#70F576"/>
<path opacity="0.7" d="M149.8 38.12V80H141.4V52.76L130.18 80H123.82L112.54 52.76V80H104.14V38.12H113.68L127 69.26L140.32 38.12H149.8ZM156.065 59C156.065 54.88 156.985 51.2 158.825 47.96C160.705 44.68 163.245 42.14 166.445 40.34C169.685 38.5 173.305 37.58 177.305 37.58C181.985 37.58 186.085 38.78 189.605 41.18C193.125 43.58 195.585 46.9 196.985 51.14H187.325C186.365 49.14 185.005 47.64 183.245 46.64C181.525 45.64 179.525 45.14 177.245 45.14C174.805 45.14 172.625 45.72 170.705 46.88C168.825 48 167.345 49.6 166.265 51.68C165.225 53.76 164.705 56.2 164.705 59C164.705 61.76 165.225 64.2 166.265 66.32C167.345 68.4 168.825 70.02 170.705 71.18C172.625 72.3 174.805 72.86 177.245 72.86C179.525 72.86 181.525 72.36 183.245 71.36C185.005 70.32 186.365 68.8 187.325 66.8H196.985C195.585 71.08 193.125 74.42 189.605 76.82C186.125 79.18 182.025 80.36 177.305 80.36C173.305 80.36 169.685 79.46 166.445 77.66C163.245 75.82 160.705 73.28 158.825 70.04C156.985 66.8 156.065 63.12 156.065 59ZM218.92 80.54C215.72 80.54 212.84 79.84 210.28 78.44C207.72 77 205.7 74.98 204.22 72.38C202.78 69.78 202.06 66.78 202.06 63.38C202.06 59.98 202.8 56.98 204.28 54.38C205.8 51.78 207.86 49.78 210.46 48.38C213.06 46.94 215.96 46.22 219.16 46.22C222.36 46.22 225.26 46.94 227.86 48.38C230.46 49.78 232.5 51.78 233.98 54.38C235.5 56.98 236.26 59.98 236.26 63.38C236.26 66.78 235.48 69.78 233.92 72.38C232.4 74.98 230.32 77 227.68 78.44C225.08 79.84 222.16 80.54 218.92 80.54ZM218.92 73.22C220.44 73.22 221.86 72.86 223.18 72.14C224.54 71.38 225.62 70.26 226.42 68.78C227.22 67.3 227.62 65.5 227.62 63.38C227.62 60.22 226.78 57.8 225.1 56.12C223.46 54.4 221.44 53.54 219.04 53.54C216.64 53.54 214.62 54.4 212.98 56.12C211.38 57.8 210.58 60.22 210.58 63.38C210.58 66.54 211.36 68.98 212.92 70.7C214.52 72.38 216.52 73.22 218.92 73.22ZM260.841 46.28C264.801 46.28 268.001 47.54 270.441 50.06C272.881 52.54 274.101 56.02 274.101 60.5V80H265.701V61.64C265.701 59 265.041 56.98 263.721 55.58C262.401 54.14 260.601 53.42 258.321 53.42C256.001 53.42 254.161 54.14 252.801 55.58C251.481 56.98 250.821 59 250.821 61.64V80H242.421V46.76H250.821V50.9C251.941 49.46 253.361 48.34 255.081 47.54C256.841 46.7 258.761 46.28 260.841 46.28ZM291.869 53.66V69.74C291.869 70.86 292.129 71.68 292.649 72.2C293.209 72.68 294.129 72.92 295.409 72.92H299.309V80H294.029C286.949 80 283.409 76.56 283.409 69.68V53.66H279.449V46.76H283.409V38.54H291.869V46.76H299.309V53.66H291.869ZM313.751 51.92C314.831 50.16 316.231 48.78 317.951 47.78C319.711 46.78 321.711 46.28 323.951 46.28V55.1H321.731C319.091 55.1 317.091 55.72 315.731 56.96C314.411 58.2 313.751 60.36 313.751 63.44V80H305.351V46.76H313.751V51.92ZM344.369 80.54C341.169 80.54 338.289 79.84 335.729 78.44C333.169 77 331.149 74.98 329.669 72.38C328.229 69.78 327.509 66.78 327.509 63.38C327.509 59.98 328.249 56.98 329.729 54.38C331.249 51.78 333.309 49.78 335.909 48.38C338.509 46.94 341.409 46.22 344.609 46.22C347.809 46.22 350.709 46.94 353.309 48.38C355.909 49.78 357.949 51.78 359.429 54.38C360.949 56.98 361.709 59.98 361.709 63.38C361.709 66.78 360.929 69.78 359.369 72.38C357.849 74.98 355.769 77 353.129 78.44C350.529 79.84 347.609 80.54 344.369 80.54ZM344.369 73.22C345.889 73.22 347.309 72.86 348.629 72.14C349.989 71.38 351.069 70.26 351.869 68.78C352.669 67.3 353.069 65.5 353.069 63.38C353.069 60.22 352.229 57.8 350.549 56.12C348.909 54.4 346.889 53.54 344.489 53.54C342.089 53.54 340.069 54.4 338.429 56.12C336.829 57.8 336.029 60.22 336.029 63.38C336.029 66.54 336.809 68.98 338.369 70.7C339.969 72.38 341.969 73.22 344.369 73.22ZM376.27 35.6V80H367.87V35.6H376.27Z" fill="white"/>
</svg>
