<svg width="100" height="100" viewBox="0 0 100 100" fill="none" xmlns="http://www.w3.org/2000/svg">
<path d="M49.1667 45.4167C39.7083 42.9583 36.6667 40.4167 36.6667 36.4583C36.6667 31.9167 40.875 28.75 47.9167 28.75C55.3333 28.75 58.0833 32.2917 58.3333 37.5H67.5417C67.25 30.3333 62.875 23.75 54.1667 21.625V12.5H41.6667V21.5C33.5833 23.25 27.0833 28.5 27.0833 36.5417C27.0833 46.1667 35.0417 50.9583 46.6667 53.75C57.0833 56.25 59.1667 59.9167 59.1667 63.7917C59.1667 66.6667 57.125 71.25 47.9167 71.25C39.3333 71.25 35.9583 67.4167 35.5 62.5H26.3333C26.8333 71.625 33.6667 76.75 41.6667 78.4583V87.5H54.1667V78.5417C62.2917 77 68.75 72.2917 68.75 63.75C68.75 51.9167 58.625 47.875 49.1667 45.4167Z" fill="white"/>
</svg>
