<svg width="76" height="88" viewBox="0 0 76 88" fill="none" xmlns="http://www.w3.org/2000/svg">
<path d="M72.375 12.75H53.625V8.0625C53.625 5.9905 52.8019 4.00336 51.3368 2.53823C49.8716 1.0731 47.8845 0.25 45.8125 0.25H30.1875C28.1155 0.25 26.1284 1.0731 24.6632 2.53823C23.1981 4.00336 22.375 5.9905 22.375 8.0625V12.75H3.625C2.7962 12.75 2.00134 13.0792 1.41529 13.6653C0.829241 14.2513 0.5 15.0462 0.5 15.875C0.5 16.7038 0.829241 17.4987 1.41529 18.0847C2.00134 18.6708 2.7962 19 3.625 19H6.94531L10.6562 78.5547C10.9336 83.7988 14.9531 87.75 20.0312 87.75H55.9688C61.0723 87.75 65.0117 83.8867 65.3438 78.5703L69.0547 19H72.375C73.2038 19 73.9987 18.6708 74.5847 18.0847C75.1708 17.4987 75.5 16.7038 75.5 15.875C75.5 15.0462 75.1708 14.2513 74.5847 13.6653C73.9987 13.0792 73.2038 12.75 72.375 12.75ZM25.6113 75.25H25.5C24.6901 75.2505 23.9117 74.9366 23.3287 74.3744C22.7458 73.8122 22.4039 73.0457 22.375 72.2363L20.8125 28.4863C20.783 27.6575 21.0839 26.8509 21.6491 26.244C22.2142 25.6371 22.9974 25.2795 23.8262 25.25C24.655 25.2205 25.4616 25.5214 26.0685 26.0866C26.6754 26.6517 27.033 27.4349 27.0625 28.2637L28.625 72.0137C28.6399 72.4241 28.5737 72.8335 28.4303 73.2183C28.2868 73.6032 28.0689 73.956 27.789 74.2565C27.5091 74.5571 27.1727 74.7996 26.7991 74.97C26.4254 75.1405 26.0218 75.2356 25.6113 75.25ZM41.125 72.125C41.125 72.9538 40.7958 73.7487 40.2097 74.3347C39.6237 74.9208 38.8288 75.25 38 75.25C37.1712 75.25 36.3763 74.9208 35.7903 74.3347C35.2042 73.7487 34.875 72.9538 34.875 72.125V28.375C34.875 27.5462 35.2042 26.7513 35.7903 26.1653C36.3763 25.5792 37.1712 25.25 38 25.25C38.8288 25.25 39.6237 25.5792 40.2097 26.1653C40.7958 26.7513 41.125 27.5462 41.125 28.375V72.125ZM47.375 12.75H28.625V8.0625C28.6226 7.85666 28.6615 7.65242 28.7391 7.46178C28.8168 7.27115 28.9318 7.09796 29.0774 6.9524C29.223 6.80683 29.3961 6.69183 29.5868 6.61414C29.7774 6.53645 29.9817 6.49764 30.1875 6.5H45.8125C46.0183 6.49764 46.2226 6.53645 46.4132 6.61414C46.6039 6.69183 46.777 6.80683 46.9226 6.9524C47.0682 7.09796 47.1832 7.27115 47.2609 7.46178C47.3386 7.65242 47.3774 7.85666 47.375 8.0625V12.75ZM53.625 72.2363C53.5961 73.0457 53.2542 73.8122 52.6713 74.3744C52.0883 74.9366 51.3099 75.2505 50.5 75.25H50.3867C49.9764 75.2354 49.573 75.1401 49.1996 74.9695C48.8261 74.7989 48.49 74.5564 48.2103 74.2559C47.9306 73.9553 47.7129 73.6026 47.5695 73.2179C47.4262 72.8332 47.3601 72.424 47.375 72.0137L48.9375 28.2637C48.9521 27.8533 49.0474 27.4498 49.218 27.0763C49.3885 26.7027 49.631 26.3664 49.9315 26.0866C50.232 25.8067 50.5847 25.5888 50.9695 25.4453C51.3542 25.3017 51.7634 25.2354 52.1738 25.25C52.5842 25.2646 52.9877 25.3599 53.3612 25.5305C53.7348 25.701 54.0711 25.9435 54.3509 26.244C54.6308 26.5445 54.8487 26.8972 54.9922 27.282C55.1358 27.6667 55.2021 28.0759 55.1875 28.4863L53.625 72.2363Z" fill="#969CB3"/>
</svg>
